<?xml version="1.0" standalone="no"?>
<!DOCTYPE svg PUBLIC "-//W3C//DTD SVG 20010904//EN"
 "http://www.w3.org/TR/2001/REC-SVG-20010904/DTD/svg10.dtd">
<svg version="1.0" xmlns="http://www.w3.org/2000/svg"
 width="200.000000pt" height="200.000000pt" viewBox="0 0 200.000000 200.000000"
 preserveAspectRatio="xMidYMid meet">

<g transform="translate(0.000000,200.000000) scale(0.100000,-0.100000)"
fill="#000000" stroke="none">
<path d="M510 1030 l0 -732 338 4 c301 4 344 7 403 25 131 39 227 121 269 229
32 82 33 224 1 305 -38 99 -129 182 -234 214 l-42 13 30 7 c74 19 145 75 178
141 27 52 39 152 28 221 -22 140 -100 225 -251 275 -60 20 -90 22 -392 26
l-328 4 0 -732z m586 559 c118 -20 178 -80 191 -187 11 -96 -36 -182 -120
-218 -35 -15 -77 -19 -249 -22 l-208 -4 0 221 0 221 162 0 c89 0 190 -5 224
-11z m29 -600 c113 -21 172 -69 200 -161 32 -108 10 -223 -54 -287 -64 -64
-106 -73 -348 -79 l-213 -4 0 271 0 271 178 0 c98 0 205 -5 237 -11z"/>
</g>
</svg>
